<?xml version="1.0" encoding="UTF-8"?>
<svg id="Layer_1" xmlns="http://www.w3.org/2000/svg" xmlns:xlink="http://www.w3.org/1999/xlink" version="1.1" viewBox="0 0 701.66 150.36">
  <!-- Generator: Adobe Illustrator 30.2.1, SVG Export Plug-In . SVG Version: 2.1.1 Build 1)  -->
  <defs>
    <style>
      .st0 {
        fill: url(#radial-gradient);
      }

      .st1 {
        fill: #fff;
      }
    </style>
    <radialGradient id="radial-gradient" cx="586.59" cy="25.21" fx="586.59" fy="25.21" r="230.45" gradientTransform="translate(20.28 -128.07) rotate(14.08) scale(1 .43)" gradientUnits="userSpaceOnUse">
      <stop offset=".36" stop-color="#09bcb6"/>
      <stop offset="1" stop-color="#0f84e4"/>
    </radialGradient>
  </defs>
  <g>
    <path class="st1" d="M.57,149.9v-28.65h9.42c2.85,0,5.32.58,7.42,1.75,2.1,1.17,3.73,2.82,4.88,4.96,1.15,2.14,1.73,4.67,1.73,7.6s-.58,5.42-1.73,7.58-2.78,3.82-4.88,5c-2.1,1.18-4.58,1.77-7.42,1.77H.57ZM3.64,147.02h6.35c2.2,0,4.11-.47,5.73-1.4,1.62-.94,2.87-2.26,3.75-3.98.88-1.72,1.33-3.74,1.33-6.08s-.45-4.35-1.35-6.06c-.9-1.7-2.15-3.02-3.77-3.96-1.62-.94-3.51-1.4-5.69-1.4H3.64v22.88Z"/>
    <path class="st1" d="M42.18,150.36c-1.95,0-3.72-.47-5.31-1.4-1.59-.94-2.85-2.22-3.79-3.85-.94-1.63-1.4-3.48-1.4-5.56s.46-3.88,1.38-5.5,2.17-2.89,3.75-3.83c1.58-.94,3.37-1.4,5.37-1.4s3.79.46,5.37,1.38c1.58.92,2.82,2.19,3.73,3.81.91,1.62,1.37,3.46,1.37,5.54s-.47,3.97-1.42,5.6c-.95,1.63-2.21,2.9-3.79,3.83s-3.33,1.38-5.25,1.38ZM42.18,147.48c1.38,0,2.63-.35,3.75-1.04s2-1.64,2.65-2.85.98-2.55.98-4.04-.33-2.82-.98-4c-.65-1.18-1.54-2.11-2.65-2.81-1.12-.69-2.37-1.04-3.75-1.04s-2.63.35-3.75,1.04c-1.12.69-2.01,1.63-2.67,2.81-.67,1.18-1,2.51-1,4s.33,2.83,1,4.04c.67,1.21,1.56,2.15,2.67,2.85s2.36,1.04,3.75,1.04Z"/>
    <path class="st1" d="M61.56,149.9v-20.61h2.88v3.92l-.46-.58c.56-1.21,1.4-2.14,2.52-2.81,1.12-.67,2.34-1,3.67-1,1.59,0,3.02.45,4.31,1.35,1.28.9,2.19,2.06,2.73,3.5l-.81.04c.51-1.59,1.4-2.8,2.67-3.63,1.27-.83,2.67-1.25,4.21-1.25,1.38,0,2.66.33,3.83,1,1.17.67,2.1,1.58,2.81,2.75.7,1.17,1.06,2.48,1.06,3.94v13.38h-2.88v-12.27c0-1.26-.22-2.32-.67-3.19-.45-.87-1.06-1.54-1.83-2.02s-1.65-.71-2.65-.71-1.86.24-2.65.71c-.8.47-1.42,1.15-1.88,2.04s-.69,1.94-.69,3.17v12.27h-2.88v-12.27c0-1.26-.22-2.32-.67-3.19-.45-.87-1.06-1.54-1.83-2.02s-1.65-.71-2.65-.71-1.89.24-2.67.71c-.78.47-1.4,1.15-1.87,2.04s-.69,1.94-.69,3.17v12.27h-2.88Z"/>
    <path class="st1" d="M106.29,150.36c-1.31,0-2.47-.25-3.5-.75-1.03-.5-1.83-1.19-2.42-2.06-.59-.87-.88-1.87-.88-3s.23-2.06.69-2.94,1.18-1.63,2.15-2.25c.97-.62,2.22-1.05,3.73-1.31l8.08-1.35v2.61l-7.38,1.23c-1.49.26-2.56.73-3.21,1.42-.65.69-.98,1.51-.98,2.46s.36,1.71,1.1,2.35c.73.64,1.67.96,2.83.96,1.41,0,2.64-.3,3.69-.9,1.05-.6,1.87-1.42,2.46-2.44.59-1.03.88-2.17.88-3.42v-5.23c0-1.23-.45-2.23-1.35-3-.9-.77-2.06-1.15-3.5-1.15-1.26,0-2.36.31-3.31.94-.95.63-1.65,1.44-2.12,2.44l-2.62-1.42c.38-.87.99-1.67,1.83-2.38.83-.72,1.79-1.29,2.87-1.71s2.19-.63,3.35-.63c1.51,0,2.85.3,4.02.88,1.17.59,2.08,1.4,2.73,2.44.65,1.04.98,2.24.98,3.6v14.15h-2.88v-4.12l.42.42c-.36.77-.92,1.47-1.67,2.1-.76.63-1.64,1.13-2.65,1.5-1.01.37-2.12.56-3.33.56Z"/>
    <path class="st1" d="M126.17,125.48v-4.23h2.88v4.23h-2.88ZM126.17,149.9v-20.61h2.88v20.61h-2.88Z"/>
    <path class="st1" d="M138.83,149.9v-20.61h2.88v4l-.65-.15c.51-1.33,1.35-2.38,2.52-3.15,1.17-.77,2.52-1.15,4.06-1.15s2.78.33,3.94,1c1.17.67,2.09,1.58,2.77,2.75.68,1.17,1.02,2.48,1.02,3.94v13.38h-2.88v-12.27c0-1.26-.22-2.32-.67-3.19-.45-.87-1.08-1.54-1.88-2.02s-1.74-.71-2.79-.71-1.99.24-2.81.71c-.82.47-1.46,1.15-1.92,2.04s-.69,1.94-.69,3.17v12.27h-2.88Z"/>
    <path class="st1" d="M171.86,150.36c-1.97,0-3.7-.5-5.19-1.5-1.49-1-2.56-2.36-3.23-4.08l2.42-1.15c.59,1.26,1.42,2.26,2.48,3,1.06.74,2.24,1.12,3.52,1.12s2.27-.3,3.12-.9c.85-.6,1.27-1.39,1.27-2.37,0-.72-.21-1.29-.62-1.71-.41-.42-.88-.75-1.42-.98-.54-.23-1.01-.4-1.42-.5l-2.96-.85c-1.9-.54-3.27-1.29-4.11-2.27-.85-.97-1.27-2.1-1.27-3.38,0-1.21.31-2.26.92-3.15s1.45-1.59,2.5-2.08c1.05-.49,2.22-.73,3.5-.73,1.74,0,3.33.46,4.75,1.37s2.43,2.17,3.02,3.79l-2.46,1.15c-.51-1.15-1.25-2.06-2.21-2.71-.96-.65-2.03-.98-3.21-.98s-2.08.3-2.77.89c-.69.59-1.04,1.33-1.04,2.23,0,.69.18,1.24.54,1.65.36.41.78.72,1.25.92.47.21.89.36,1.25.46l3.42,1c1.67.49,2.97,1.24,3.9,2.27.94,1.03,1.4,2.23,1.4,3.62,0,1.13-.31,2.14-.94,3.04-.63.9-1.49,1.6-2.6,2.1-1.1.5-2.37.75-3.81.75Z"/>
    <path class="st1" d="M205.71,150.36c-1.54,0-2.91-.29-4.12-.88-1.21-.59-2.15-1.42-2.85-2.5-.69-1.08-1.04-2.33-1.04-3.77,0-1.23.23-2.32.69-3.27.46-.95,1.03-1.77,1.71-2.48.68-.71,1.37-1.3,2.08-1.79.7-.49,1.3-.88,1.79-1.19l2-1.23c.72-.44,1.43-.93,2.13-1.48.7-.55,1.29-1.19,1.77-1.92.47-.73.71-1.54.71-2.44,0-1.08-.36-1.97-1.08-2.69-.72-.72-1.62-1.08-2.69-1.08s-2.01.36-2.71,1.08c-.71.72-1.06,1.63-1.06,2.73,0,.72.17,1.42.52,2.11s.78,1.35,1.31,1.98c.52.63,1.07,1.24,1.63,1.83l15.77,16.54h-4.11l-14.08-14.54c-.62-.64-1.24-1.35-1.87-2.13-.63-.78-1.16-1.64-1.6-2.58-.44-.94-.65-1.97-.65-3.1,0-1.33.31-2.51.92-3.52.62-1.01,1.44-1.81,2.48-2.38s2.19-.86,3.44-.86,2.36.28,3.38.85c1.02.56,1.85,1.35,2.46,2.35.62,1,.92,2.14.92,3.42,0,1.36-.31,2.55-.94,3.56-.63,1.01-1.39,1.88-2.29,2.6-.9.72-1.73,1.32-2.5,1.81l-1.92,1.19c-.69.44-1.42.96-2.19,1.56-.77.6-1.42,1.31-1.96,2.12-.54.81-.81,1.78-.81,2.9,0,1.39.45,2.46,1.35,3.23.9.77,2.05,1.15,3.46,1.15.92,0,1.74-.15,2.46-.46.72-.31,1.36-.71,1.92-1.21.56-.5,1.08-1.06,1.54-1.69.46-.63.9-1.25,1.31-1.87l4.42-6.58h3.5l-5.15,7.85c-.41.64-.91,1.35-1.5,2.13-.59.78-1.28,1.53-2.08,2.23-.79.71-1.72,1.29-2.79,1.75-1.06.46-2.3.69-3.71.69Z"/>
    <path class="st1" d="M251.05,150.36c-1.82,0-3.47-.35-4.96-1.04-1.49-.69-2.74-1.62-3.77-2.79-1.03-1.17-1.76-2.46-2.19-3.86l2.77-1.04c.67,1.95,1.7,3.43,3.12,4.44,1.41,1.01,3.09,1.52,5.04,1.52,1.23,0,2.31-.2,3.25-.6.94-.4,1.66-.95,2.17-1.67.51-.72.77-1.55.77-2.5,0-1.41-.38-2.5-1.15-3.27-.77-.77-1.87-1.36-3.31-1.77l-5.15-1.54c-2.03-.59-3.58-1.58-4.67-2.96-1.09-1.38-1.63-2.96-1.63-4.73,0-1.51.37-2.85,1.12-4.02.74-1.17,1.76-2.08,3.06-2.75,1.29-.67,2.76-1,4.4-1s3.26.31,4.63.94c1.37.63,2.53,1.46,3.48,2.48.95,1.03,1.63,2.17,2.04,3.42l-2.69,1.08c-.62-1.69-1.57-2.97-2.87-3.85-1.3-.87-2.81-1.31-4.56-1.31-1.1,0-2.07.19-2.9.58-.83.38-1.48.94-1.94,1.65s-.69,1.56-.69,2.54c0,1.18.37,2.24,1.12,3.17.74.94,1.88,1.63,3.42,2.1l4.54,1.35c2.26.67,3.96,1.63,5.12,2.88,1.15,1.26,1.73,2.83,1.73,4.73,0,1.54-.39,2.89-1.17,4.06-.78,1.17-1.87,2.08-3.27,2.75-1.4.67-3.01,1-4.83,1Z"/>
    <path class="st1" d="M279.32,150.36c-1.95,0-3.72-.47-5.31-1.4-1.59-.94-2.85-2.22-3.79-3.85-.94-1.63-1.4-3.48-1.4-5.56s.46-3.88,1.38-5.5,2.17-2.89,3.75-3.83c1.58-.94,3.37-1.4,5.37-1.4s3.79.46,5.37,1.38c1.58.92,2.82,2.19,3.73,3.81.91,1.62,1.37,3.46,1.37,5.54s-.47,3.97-1.42,5.6c-.95,1.63-2.21,2.9-3.79,3.83s-3.33,1.38-5.25,1.38ZM279.32,147.48c1.38,0,2.63-.35,3.75-1.04s2-1.64,2.65-2.85.98-2.55.98-4.04-.33-2.82-.98-4c-.65-1.18-1.54-2.11-2.65-2.81-1.12-.69-2.37-1.04-3.75-1.04s-2.63.35-3.75,1.04c-1.12.69-2.01,1.63-2.67,2.81-.67,1.18-1,2.51-1,4s.33,2.83,1,4.04c.67,1.21,1.56,2.15,2.67,2.85s2.36,1.04,3.75,1.04Z"/>
    <path class="st1" d="M308.13,150.36c-2.03,0-3.81-.47-5.35-1.42-1.54-.95-2.74-2.24-3.62-3.86-.87-1.63-1.31-3.47-1.31-5.52s.44-3.88,1.31-5.5c.87-1.62,2.08-2.89,3.62-3.83,1.54-.94,3.32-1.4,5.35-1.4,1.28,0,2.49.23,3.62.69,1.13.46,2.13,1.08,3,1.87.87.78,1.53,1.69,1.96,2.71l-2.62,1.35c-.51-1.1-1.29-2-2.35-2.69-1.05-.69-2.26-1.04-3.62-1.04s-2.58.34-3.67,1.02c-1.09.68-1.95,1.62-2.58,2.81-.63,1.19-.94,2.55-.94,4.06s.31,2.83.94,4.02c.63,1.19,1.49,2.14,2.58,2.83,1.09.69,2.31,1.04,3.67,1.04s2.56-.35,3.6-1.04c1.04-.69,1.83-1.62,2.36-2.77l2.62,1.42c-.44,1-1.09,1.9-1.96,2.69-.87.79-1.87,1.42-3,1.88-1.13.46-2.33.69-3.62.69Z"/>
    <path class="st1" d="M325.62,125.48v-4.23h2.88v4.23h-2.88ZM325.62,149.9v-20.61h2.88v20.61h-2.88Z"/>
    <path class="st1" d="M344.24,150.36c-1.31,0-2.47-.25-3.5-.75-1.03-.5-1.83-1.19-2.42-2.06-.59-.87-.88-1.87-.88-3s.23-2.06.69-2.94,1.18-1.63,2.15-2.25c.97-.62,2.22-1.05,3.73-1.31l8.08-1.35v2.61l-7.38,1.23c-1.49.26-2.56.73-3.21,1.42-.65.69-.98,1.51-.98,2.46s.36,1.71,1.1,2.35c.73.64,1.67.96,2.83.96,1.41,0,2.64-.3,3.69-.9,1.05-.6,1.87-1.42,2.46-2.44.59-1.03.88-2.17.88-3.42v-5.23c0-1.23-.45-2.23-1.35-3-.9-.77-2.06-1.15-3.5-1.15-1.26,0-2.36.31-3.31.94-.95.63-1.65,1.44-2.12,2.44l-2.62-1.42c.38-.87.99-1.67,1.83-2.38.83-.72,1.79-1.29,2.87-1.71s2.19-.63,3.35-.63c1.51,0,2.85.3,4.02.88,1.17.59,2.08,1.4,2.73,2.44.65,1.04.98,2.24.98,3.6v14.15h-2.88v-4.12l.42.42c-.36.77-.92,1.47-1.67,2.1-.76.63-1.64,1.13-2.65,1.5-1.01.37-2.12.56-3.33.56Z"/>
    <path class="st1" d="M364.12,149.9v-29.11h2.88v29.11h-2.88Z"/>
    <path class="st1" d="M387.58,149.9v-28.65h2.69l16.81,24.11h-1.04v-24.11h3.08v28.65h-2.69l-16.81-24.27h1.04v24.27h-3.08Z"/>
    <path class="st1" d="M425.27,150.36c-1.31,0-2.47-.25-3.5-.75-1.03-.5-1.83-1.19-2.42-2.06-.59-.87-.89-1.87-.89-3s.23-2.06.69-2.94c.46-.88,1.18-1.63,2.15-2.25.97-.62,2.22-1.05,3.73-1.31l8.08-1.35v2.61l-7.38,1.23c-1.49.26-2.56.73-3.21,1.42-.65.69-.98,1.51-.98,2.46s.37,1.71,1.1,2.35c.73.64,1.67.96,2.83.96,1.41,0,2.64-.3,3.69-.9,1.05-.6,1.87-1.42,2.46-2.44.59-1.03.88-2.17.88-3.42v-5.23c0-1.23-.45-2.23-1.35-3-.9-.77-2.06-1.15-3.5-1.15-1.26,0-2.36.31-3.31.94-.95.63-1.65,1.44-2.12,2.44l-2.61-1.42c.38-.87.99-1.67,1.83-2.38.83-.72,1.79-1.29,2.87-1.71,1.08-.42,2.19-.63,3.35-.63,1.51,0,2.85.3,4.02.88,1.17.59,2.08,1.4,2.73,2.44.65,1.04.98,2.24.98,3.6v14.15h-2.88v-4.12l.42.42c-.36.77-.92,1.47-1.67,2.1s-1.64,1.13-2.65,1.5-2.12.56-3.33.56Z"/>
    <path class="st1" d="M445.16,149.9v-20.61h2.88v3.92l-.46-.58c.56-1.21,1.4-2.14,2.52-2.81,1.12-.67,2.34-1,3.67-1,1.59,0,3.02.45,4.31,1.35,1.28.9,2.19,2.06,2.73,3.5l-.81.04c.51-1.59,1.4-2.8,2.67-3.63,1.27-.83,2.67-1.25,4.21-1.25,1.38,0,2.66.33,3.83,1,1.17.67,2.1,1.58,2.81,2.75.7,1.17,1.06,2.48,1.06,3.94v13.38h-2.88v-12.27c0-1.26-.22-2.32-.67-3.19-.45-.87-1.06-1.54-1.83-2.02-.77-.47-1.65-.71-2.65-.71s-1.86.24-2.65.71c-.8.47-1.42,1.15-1.88,2.04-.46.88-.69,1.94-.69,3.17v12.27h-2.88v-12.27c0-1.26-.22-2.32-.67-3.19-.45-.87-1.06-1.54-1.83-2.02-.77-.47-1.65-.71-2.65-.71s-1.89.24-2.67.71c-.78.47-1.4,1.15-1.87,2.04-.46.88-.69,1.94-.69,3.17v12.27h-2.88Z"/>
    <path class="st1" d="M493.31,150.36c-1.92,0-3.66-.47-5.21-1.4-1.55-.94-2.78-2.22-3.67-3.86s-1.35-3.5-1.35-5.58.44-3.92,1.31-5.52c.87-1.6,2.06-2.87,3.56-3.79,1.5-.92,3.19-1.38,5.06-1.38,1.49,0,2.81.28,3.98.83,1.17.55,2.16,1.3,2.98,2.23.82.94,1.45,1.99,1.88,3.15.44,1.17.65,2.37.65,3.6,0,.26-.01.54-.04.87s-.06.65-.12.98h-17.42v-2.69h15.77l-1.38,1.15c.23-1.41.07-2.67-.48-3.79s-1.34-2-2.36-2.65c-1.03-.65-2.18-.98-3.46-.98s-2.47.33-3.56,1-1.94,1.6-2.56,2.79c-.62,1.19-.86,2.61-.73,4.25-.13,1.64.13,3.07.79,4.29.65,1.22,1.55,2.16,2.69,2.83s2.37,1,3.67,1c1.51,0,2.78-.36,3.81-1.08,1.03-.72,1.86-1.62,2.5-2.69l2.46,1.31c-.41.92-1.04,1.78-1.88,2.56s-1.85,1.41-3.02,1.88c-1.17.47-2.46.71-3.87.71Z"/>
    <path class="st1" d="M531.88,150.36c-1.82,0-3.48-.35-4.96-1.04-1.49-.69-2.74-1.62-3.77-2.79-1.03-1.17-1.76-2.46-2.19-3.86l2.77-1.04c.67,1.95,1.71,3.43,3.12,4.44,1.41,1.01,3.09,1.52,5.04,1.52,1.23,0,2.31-.2,3.25-.6.94-.4,1.66-.95,2.17-1.67.51-.72.77-1.55.77-2.5,0-1.41-.38-2.5-1.15-3.27s-1.87-1.36-3.31-1.77l-5.15-1.54c-2.03-.59-3.58-1.58-4.67-2.96-1.09-1.38-1.63-2.96-1.63-4.73,0-1.51.37-2.85,1.12-4.02.74-1.17,1.76-2.08,3.06-2.75,1.29-.67,2.76-1,4.4-1s3.26.31,4.63.94c1.37.63,2.53,1.46,3.48,2.48.95,1.03,1.63,2.17,2.04,3.42l-2.69,1.08c-.62-1.69-1.57-2.97-2.87-3.85-1.3-.87-2.81-1.31-4.56-1.31-1.1,0-2.07.19-2.9.58-.83.38-1.48.94-1.94,1.65-.46.72-.69,1.56-.69,2.54,0,1.18.37,2.24,1.12,3.17.74.94,1.88,1.63,3.42,2.1l4.54,1.35c2.26.67,3.96,1.63,5.12,2.88s1.73,2.83,1.73,4.73c0,1.54-.39,2.89-1.17,4.06-.78,1.17-1.87,2.08-3.27,2.75s-3.01,1-4.83,1Z"/>
    <path class="st1" d="M559.88,150.36c-1.92,0-3.66-.47-5.21-1.4-1.55-.94-2.78-2.22-3.67-3.86s-1.35-3.5-1.35-5.58.44-3.92,1.31-5.52c.87-1.6,2.06-2.87,3.56-3.79,1.5-.92,3.19-1.38,5.06-1.38,1.49,0,2.81.28,3.98.83,1.17.55,2.16,1.3,2.98,2.23.82.94,1.45,1.99,1.88,3.15.44,1.17.65,2.37.65,3.6,0,.26-.01.54-.04.87s-.06.65-.12.98h-17.42v-2.69h15.77l-1.38,1.15c.23-1.41.07-2.67-.48-3.79s-1.34-2-2.36-2.65c-1.03-.65-2.18-.98-3.46-.98s-2.47.33-3.56,1-1.94,1.6-2.56,2.79c-.62,1.19-.86,2.61-.73,4.25-.13,1.64.13,3.07.79,4.29.65,1.22,1.55,2.16,2.69,2.83s2.37,1,3.67,1c1.51,0,2.78-.36,3.81-1.08,1.03-.72,1.86-1.62,2.5-2.69l2.46,1.31c-.41.92-1.04,1.78-1.88,2.56s-1.85,1.41-3.02,1.88c-1.17.47-2.46.71-3.87.71Z"/>
    <path class="st1" d="M583.57,150.36c-1.31,0-2.47-.25-3.5-.75-1.03-.5-1.83-1.19-2.42-2.06-.59-.87-.89-1.87-.89-3s.23-2.06.69-2.94c.46-.88,1.18-1.63,2.15-2.25.97-.62,2.22-1.05,3.73-1.31l8.08-1.35v2.61l-7.38,1.23c-1.49.26-2.56.73-3.21,1.42-.65.69-.98,1.51-.98,2.46s.37,1.71,1.1,2.35c.73.64,1.67.96,2.83.96,1.41,0,2.64-.3,3.69-.9,1.05-.6,1.87-1.42,2.46-2.44.59-1.03.88-2.17.88-3.42v-5.23c0-1.23-.45-2.23-1.35-3-.9-.77-2.06-1.15-3.5-1.15-1.26,0-2.36.31-3.31.94-.95.63-1.65,1.44-2.12,2.44l-2.61-1.42c.38-.87.99-1.67,1.83-2.38.83-.72,1.79-1.29,2.87-1.71,1.08-.42,2.19-.63,3.35-.63,1.51,0,2.85.3,4.02.88,1.17.59,2.08,1.4,2.73,2.44.65,1.04.98,2.24.98,3.6v14.15h-2.88v-4.12l.42.42c-.36.77-.92,1.47-1.67,2.1s-1.64,1.13-2.65,1.5-2.12.56-3.33.56Z"/>
    <path class="st1" d="M603.45,149.9v-20.61h2.88v3.38l-.38-.5c.49-.97,1.22-1.74,2.21-2.31.99-.56,2.19-.85,3.6-.85h1.31v2.88h-1.81c-1.49,0-2.68.46-3.58,1.38-.9.92-1.35,2.23-1.35,3.92v12.69h-2.88Z"/>
    <path class="st1" d="M629.72,150.36c-2.03,0-3.81-.47-5.35-1.42-1.54-.95-2.74-2.24-3.61-3.86-.87-1.63-1.31-3.47-1.31-5.52s.44-3.88,1.31-5.5c.87-1.62,2.08-2.89,3.61-3.83,1.54-.94,3.32-1.4,5.35-1.4,1.28,0,2.49.23,3.62.69,1.13.46,2.13,1.08,3,1.87s1.53,1.69,1.96,2.71l-2.61,1.35c-.51-1.1-1.3-2-2.35-2.69-1.05-.69-2.26-1.04-3.62-1.04s-2.58.34-3.67,1.02c-1.09.68-1.95,1.62-2.58,2.81-.63,1.19-.94,2.55-.94,4.06s.31,2.83.94,4.02c.63,1.19,1.49,2.14,2.58,2.83,1.09.69,2.31,1.04,3.67,1.04s2.56-.35,3.6-1.04,1.83-1.62,2.37-2.77l2.61,1.42c-.44,1-1.09,1.9-1.96,2.69s-1.87,1.42-3,1.88c-1.13.46-2.33.69-3.62.69Z"/>
    <path class="st1" d="M647.22,149.9v-29.11h2.88v12.5l-.65-.15c.51-1.33,1.35-2.38,2.52-3.15,1.17-.77,2.52-1.15,4.06-1.15s2.78.33,3.94,1c1.17.67,2.09,1.58,2.77,2.75.68,1.17,1.02,2.48,1.02,3.94v13.38h-2.88v-12.27c0-1.26-.23-2.32-.69-3.19-.46-.87-1.1-1.54-1.9-2.02s-1.72-.71-2.75-.71-1.95.24-2.77.71c-.82.47-1.47,1.15-1.94,2.04-.48.88-.71,1.94-.71,3.17v12.27h-2.88Z"/>
  </g>
  <g>
    <path class="st1" d="M59.84,1.58h20.39v97.99h-15.78L20.39,40.03v59.53H0V1.58h15.65l44.19,58.22V1.58ZM151.84,38.6c2.59,3.9,3.88,8.44,3.88,13.61v47.35h-18.41v-6.84c-.81.82-1.64,1.61-2.5,2.31-2.54,2.06-5.39,3.6-8.55,4.6-3.16,1.01-6.67,1.51-10.52,1.51-5.17,0-9.65-.83-13.42-2.5-3.77-1.66-6.66-4.05-8.68-7.17-2.02-3.11-3.03-6.82-3.03-11.11,0-4.03.92-7.61,2.76-10.72,1.84-3.11,4.67-5.72,8.48-7.83,3.81-2.1,8.57-3.59,14.27-4.47l19.86-3.21v-1.92c0-2.72-1.07-5-3.22-6.84-2.15-1.84-5.06-2.76-8.75-2.76s-6.6.97-9.27,2.89c-2.67,1.93-4.63,4.47-5.85,7.63l-15.78-7.5c1.4-4.03,3.64-7.5,6.71-10.39,3.07-2.89,6.75-5.13,11.05-6.71,4.3-1.58,8.99-2.37,14.07-2.37,6.05,0,11.4,1.1,16.05,3.29,4.65,2.19,8.26,5.24,10.85,9.14ZM136,70.89v-2.26l-16.31,2.91c-2.81.53-4.96,1.43-6.44,2.7-1.49,1.27-2.24,3.09-2.24,5.46,0,2.19.83,3.9,2.5,5.13,1.67,1.23,3.73,1.84,6.18,1.84,3.24,0,6.09-.7,8.55-2.1,2.45-1.4,4.36-3.31,5.72-5.72,1.36-2.41,2.04-5.06,2.04-7.96ZM263.9,29.59c-3.99-2.28-8.57-3.42-13.74-3.42-5.88,0-11,1.4-15.39,4.21-2.63,1.68-4.88,3.92-6.78,6.7-1.49-2.47-3.53-4.61-6.17-6.37-4.52-3.03-9.75-4.54-15.72-4.54-5.61,0-10.44,1.32-14.47,3.95-2.43,1.58-4.31,3.7-5.66,6.34v-8.7h-18.41v71.81h19.73v-41.96c0-2.8.5-5.22,1.51-7.23,1.01-2.02,2.45-3.59,4.34-4.74,1.88-1.14,4.1-1.71,6.64-1.71s4.87.57,6.71,1.71c1.84,1.14,3.27,2.72,4.27,4.74,1.01,2.02,1.51,4.43,1.51,7.23v41.96h19.73v-41.96c0-2.8.5-5.22,1.51-7.23,1.01-2.02,2.45-3.59,4.34-4.74,1.88-1.14,4.1-1.71,6.64-1.71s4.87.57,6.71,1.71c1.84,1.14,3.26,2.72,4.27,4.74,1.01,2.02,1.51,4.43,1.51,7.23v41.96h19.73v-46.17c0-5.44-1.14-10.19-3.42-14.27-2.28-4.08-5.42-7.25-9.4-9.54ZM355.91,61.55c0,1.4-.07,2.79-.2,4.14-.13,1.36-.37,2.52-.72,3.49h-50.29c.24,1.84.69,3.55,1.37,5.13,1.31,3.07,3.33,5.46,6.05,7.17,2.72,1.71,6,2.56,9.86,2.56,3.51,0,6.51-.7,9.01-2.1,2.5-1.4,4.45-3.33,5.85-5.79l15.78,7.5c-1.4,3.51-3.62,6.58-6.64,9.21-3.03,2.63-6.6,4.67-10.72,6.12-4.12,1.45-8.64,2.17-13.55,2.17-7.63,0-14.25-1.69-19.86-5.06-5.61-3.37-9.95-7.91-13.02-13.61-3.07-5.7-4.6-12.01-4.6-18.94s1.6-13.59,4.8-19.2c3.2-5.61,7.52-10.04,12.96-13.28,5.44-3.24,11.57-4.87,18.41-4.87,5.7,0,10.74.9,15.12,2.7,4.38,1.8,8.09,4.32,11.11,7.56,3.02,3.25,5.33,6.99,6.9,11.25,1.58,4.25,2.37,8.88,2.37,13.88ZM306.06,51.82c-.34.91-.62,1.88-.85,2.89h29.79c-.11-1.12-.33-2.2-.66-3.22-.97-2.94-2.65-5.26-5.06-6.97-2.41-1.71-5.37-2.56-8.88-2.56s-6.36.83-8.81,2.5c-2.46,1.67-4.3,4.12-5.52,7.37Z"/>
    <path class="st0" d="M397.38,33.74c-2.41,4.78-3.62,10.37-3.62,16.77s1.2,12.01,3.62,16.83c2.41,4.82,5.81,8.59,10.19,11.31,4.38,2.72,9.47,4.08,15.26,4.08s11.03-1.56,15.19-4.67c4.16-3.11,7.08-7.04,8.75-11.77l18.02,8.68c-1.67,4.82-4.47,9.21-8.42,13.15-3.95,3.95-8.75,7.1-14.4,9.47s-12.03,3.55-19.14,3.55-13.53-1.27-19.53-3.81c-6.01-2.54-11.25-6.09-15.72-10.65-4.47-4.56-7.96-9.91-10.46-16.05-2.5-6.14-3.75-12.84-3.75-20.12s1.23-14.01,3.68-20.19c2.45-6.18,5.92-11.53,10.39-16.05,4.47-4.52,9.71-8.02,15.72-10.52,6-2.5,12.56-3.75,19.66-3.75s13.48,1.18,19.14,3.55c5.66,2.37,10.46,5.52,14.4,9.47,3.95,3.95,6.75,8.33,8.42,13.15l-18.02,8.68c-1.67-4.73-4.58-8.66-8.75-11.77-4.17-3.11-9.23-4.67-15.19-4.67s-10.87,1.36-15.26,4.08c-4.39,2.72-7.78,6.47-10.19,11.25ZM526.54,29.59c-4.08-2.28-8.83-3.42-14.27-3.42-5,0-9.36,1.03-13.09,3.09-2.3,1.27-4.21,2.97-5.72,5.1V0h-19.73v99.56h19.73v-41.96c0-2.8.55-5.22,1.64-7.23,1.1-2.02,2.65-3.59,4.67-4.74,2.02-1.14,4.29-1.71,6.84-1.71s4.93.57,6.9,1.71c1.97,1.14,3.51,2.72,4.6,4.74,1.1,2.02,1.64,4.43,1.64,7.23v41.96h19.73v-46.17c0-5.44-1.14-10.19-3.42-14.27-2.28-4.08-5.46-7.25-9.54-9.54ZM683.25,27.75v7.47c-2.14-2.52-4.78-4.55-7.96-6.08-4.08-1.97-8.75-2.96-14.01-2.96-6.84,0-13.02,1.67-18.54,5-5.52,3.33-9.91,7.83-13.15,13.48-3.25,5.66-4.87,11.99-4.87,19s1.6,13.24,4.8,18.94c3.2,5.7,7.56,10.22,13.09,13.55,5.52,3.33,11.79,5,18.81,5,4.91,0,9.47-.9,13.68-2.7,2.62-1.12,4.9-2.57,6.84-4.35v56.27h19.73V27.75h-18.41ZM679.63,73.92c-1.54,2.98-3.66,5.31-6.38,6.97-2.72,1.67-5.88,2.5-9.47,2.5s-6.82-.83-9.67-2.5c-2.85-1.67-5.06-3.99-6.64-6.97-1.58-2.98-2.37-6.4-2.37-10.26s.79-7.25,2.37-10.19c1.58-2.94,3.79-5.26,6.64-6.97,2.85-1.71,6.07-2.57,9.67-2.57s6.75.83,9.47,2.5c2.72,1.67,4.84,3.99,6.38,6.97,1.53,2.98,2.3,6.4,2.3,10.26s-.77,7.28-2.3,10.26ZM647.73,10.69s-35.21,19.94-60.42,52c0,0-9.18-10.87-19.31-8.3.22-.95.49-1.82.83-2.56,1.44-3.15,3.07-5.7,5.52-7.37,2.45-1.67,5.39-2.5,8.81-2.5s6.46.85,8.88,2.56c.69.49,1.32,1.04,1.9,1.64l12.85-12.2c-2.47-2.08-5.3-3.78-8.5-5.09-4.39-1.8-9.43-2.7-15.12-2.7-6.84,0-12.98,1.62-18.41,4.87-5.44,3.25-9.75,7.67-12.96,13.28-3.2,5.61-4.8,12.01-4.8,19.2s1.53,13.24,4.6,18.94c3.07,5.7,7.41,10.24,13.02,13.61,5.61,3.38,12.23,5.06,19.86,5.06,4.91,0,9.42-.72,13.55-2.17,4.12-1.45,7.69-3.49,10.72-6.12,3.03-2.63,5.24-5.7,6.64-9.21l-15.78-7.5c-1.4,2.46-3.35,4.39-5.85,5.79-2.5,1.4-5.5,2.1-9.01,2.1-3.86,0-7.15-.86-9.86-2.56-2.72-1.71-4.74-4.1-6.05-7.17-.68-1.58-1.13-3.29-1.37-5.13,0,0-.35-3.84-.21-8.15.86.14,1.65.42,2.33.97,2.08,1.72,13.6,14.59,13.6,14.59,0,0,2.99,5.35,8.88-.82,5.89-6.16,22.06-28.4,30.04-37.14s24.47-25.67,25.21-26.3c.75-.63,1.18-1.82.42-1.66Z"/>
  </g>
</svg>